<svg preserveAspectRatio="xMidYMid meet" data-bbox="0 0 91 62.159" xmlns="http://www.w3.org/2000/svg" viewBox="0 0 91 62.159" height="63" width="91" data-type="color" role="presentation" aria-hidden="true" aria-labelledby="svgcid-ih5wl98b0wwk"><title id="svgcid-ih5wl98b0wwk"></title>
    <g>
        <path fill="#FA5961" d="M.248 7.87l24.963 52.16c1.724 3.193 5.478 2.75 7.49-1.032l7.691-16.292c.407-1.005.369-2.137-.103-3.023l-11.32-23.761c-5-9.524-4.286-11.246-12.903-11.246H1.912c-1.427 0-2.39 1.849-1.664 3.195z" data-color="1"></path>
        <path fill="#FA5961" d="M35.503 7.87l24.963 52.16c1.724 3.193 5.582 2.75 7.49-1.032l7.691-16.292c.407-1.005.368-2.137-.104-3.023l-11.32-23.761c-5-9.524-4.285-11.246-12.902-11.246H37.167c-1.427 0-2.39 1.849-1.664 3.195z" data-color="1"></path>
        <path fill="#FA5961" d="M90.739 10.586l-5.883 2.875c-.392.13-.653.523-.784.784l-2.876 5.881c-.13.261-.392.261-.392.261-.13 0-.261 0-.392-.26l-2.876-5.882c-.13-.392-.523-.653-.784-.784l-5.882-2.875c-.261-.13-.261-.392-.261-.392 0-.131 0-.262.26-.392l5.883-2.875c.392-.131.654-.523.784-.785l2.876-5.88c.13-.262.392-.262.392-.262.131 0 .262 0 .392.261l2.876 5.881c.13.392.523.654.784.785l5.883 2.875c.261.13.261.392.261.392 0 .13 0 .261-.261.392z" data-color="1"></path>
    </g>
</svg>